<?xml version="1.0" encoding="utf-8"?>
<!-- Generator: Adobe Illustrator 24.0.2, SVG Export Plug-In . SVG Version: 6.00 Build 0)  -->
<svg version="1.1" id="Capa_1" xmlns="http://www.w3.org/2000/svg" xmlns:xlink="http://www.w3.org/1999/xlink" x="0px" y="0px"
	 viewBox="0 0 1833.4 624.9" style="enable-background:new 0 0 1833.4 624.9;" xml:space="preserve">
<g>
	<path d="M391.8,439.8c0-17.8,11.4-32.8,27.2-38.5c1.2-14.5,3.5-30.4-0.5-43.4c-4.9-16-20.7-26.8-37.1-30.5
		c-18.1-4.1-36.5-0.2-54.6-0.8c-10.5-0.3-21-0.1-31.6,0.3c5.5,7,8.8,15.7,8.8,25.3c0,22.6-18.3,40.9-40.9,40.9
		c-20.9,0-38.1-15.7-40.5-35.9c-0.4,1.7-0.7,3.4-0.9,5c-1.4,12.6,1.5,25.3,4.4,37.6c4.6,19.7,21.4,13,37.3,13.1
		c14.8,0.2,30.2,2.7,40.2,14.8c11,13.5,13.6,37.1,3.3,51.4c-7.6,10.6-20.7,15.8-33.5,18.4C222,507.8,173,482.4,148.9,436.5
		c-3.2-6.2-5.9-12.8-8.1-19.6c-7,5.5-15.8,8.9-25.4,8.9c-22.6,0-40.9-18.3-40.9-40.9c0-22.6,18.3-40.9,40.9-40.9
		c7.2,0,14,1.9,19.9,5.2c4.5-34.2,19.5-67,44.9-87.5c24.1-19.5,55.3-29.3,86.3-30.4c20.3-0.7,40.6,2.2,60.1,7.5
		c2.4,0.7,4.9,1.3,7.4,2c-1.2-2.9-1.9-6.1-1.9-9.4c0-13.9,11.3-25.2,25.2-25.2s25.2,11.3,25.2,25.2c0,10.4-6.3,19.4-15.4,23.2
		c2.3,0.7,4.8,1.1,7.7,0.8c10.4-1.2,17.4-11,22.8-20c3.4-5.6,6.8-11.6,7.1-18.2c0.2-6.2-2.5-12.1-5.6-17.4
		c-15.1-25.6-40.8-40.6-69-48.2c-1.5-0.4-2.9-0.8-4.4-1.1c-45.1-11-92.1-11.8-137-1.4c4.6,4.6,7.4,10.9,7.4,17.9
		c0,13.9-11.3,25.2-25.2,25.2s-25.2-11.3-25.2-25.2c0-1.5,0.2-2.9,0.4-4.3c-45.8,19.4-81.4,55.1-102,100.8c-3.2,7.1-6,14.4-8.5,21.9
		C17.5,340.8,20.2,402.8,43,456.7c18.8,44.4,57.6,96.5,104.9,113.5c1.5,0.5,3,1.1,4.5,1.7c4.6,1.7,9.2,3.3,14,4.7
		c11.4,3.4,23.2,6.2,35.4,8.2c1.5,0.3,3.1,0.5,4.6,0.7c4,0.6,8.1,1.2,12.3,1.7c-2.8-4.1-4.5-9-4.5-14.4c0-13.9,11.3-25.2,25.2-25.2
		c13.9,0,25.2,11.3,25.2,25.2c0,6.7-2.7,12.8-7,17.3c34.2,0.9,69.4-2.8,99.7-14.5c23.8-9.1,45.7-26.3,54.6-50.2c1-2.6,1.8-5.3,2.4-8
		c3-12.2,3.2-25,3.3-37.7c0-0.7,0-1.5,0-2.2C402.5,471.7,391.8,457,391.8,439.8L391.8,439.8z"/>
	<path d="M264.3,586.9c35.1,0.3,66.1-4.5,91.7-14.3c25.7-9.9,44.9-27.4,52.5-48.1c0.9-2.4,1.7-4.9,2.3-7.6
		c2.9-11.9,3.1-24.6,3.2-36.8c-15.7-7.2-25.8-22.8-25.8-40.2c0-17.9,10.9-34.1,27.4-40.9l0.3-3.5c1.2-12.6,2.4-25.7-0.9-36.4
		c-4.9-16.1-21.1-25.1-34.5-28.2c-11.1-2.5-22.3-1.9-34-1.2c-6.5,0.4-13.3,0.8-19.9,0.5c-8.4-0.3-16.9-0.1-25.1,0.1
		c3.9,6.7,5.9,14.2,5.9,22c0,24.4-19.9,44.3-44.3,44.3c-16,0-30.2-8.6-38-21.6c0.7,8.1,2.6,16.2,4.4,24.1c2.8,12,10,12,23.6,11
		c3.4-0.3,6.9-0.6,10.4-0.5c12.9,0.1,31.3,2,42.8,16.1c12.5,15.3,14.1,40.8,3.5,55.7c-7,9.8-19,16.5-35.6,19.8
		c-51.6,10.3-103.1-15-128.3-62.9c-2.5-4.8-4.8-10-6.8-15.7c-7.1,4.5-15.1,6.8-23.6,6.8c-24.4,0-44.3-19.9-44.3-44.3
		c0-24.5,19.9-44.3,44.3-44.3c5.9,0,11.7,1.2,17.1,3.5c5.7-35.3,22.1-66.1,45.5-85c23.4-18.9,54.8-30,88.4-31.2
		c19.5-0.7,40.1,1.9,61.2,7.6c0.5,0.1,1,0.3,1.5,0.4c-0.2-1.5-0.3-2.9-0.3-4.4c0-15.8,12.9-28.7,28.7-28.7s28.7,12.9,28.7,28.7
		c0,7.4-2.8,14.3-7.7,19.5c6.7-2.7,11.8-9.8,16.4-17.4c3.5-5.7,6.4-10.9,6.6-16.5c0.2-5.7-2.6-11.3-5.1-15.5
		c-13.1-22.3-36.3-38.4-66.9-46.6c-1.4-0.4-2.9-0.8-4.3-1.1c-43.2-10.5-88-11.4-130-2.6c3,4.6,4.7,10,4.7,15.7
		c0,15.8-12.9,28.7-28.7,28.7c-15.4,0-28-12.2-28.7-27.5c-41.8,19.2-75.4,53.4-95,96.7c-3.1,6.9-5.9,14.1-8.4,21.5
		c-17.9,54.4-15.3,116,7.1,169C63.4,496,100.6,549.5,149.1,567l3.9,1.4c5.1,1.9,9.7,3.5,14.4,4.8c11.2,3.4,23,6.1,35,8.1l4.5,0.7
		c1.8,0.3,3.7,0.5,5.5,0.8c-1.2-3.2-1.8-6.6-1.8-10.1c0-15.8,12.9-28.7,28.7-28.7s28.7,12.9,28.7,28.7
		C268,577.9,266.7,582.7,264.3,586.9L264.3,586.9z M267.6,593.9c-3.3,0-6.7,0-10.1-0.1l-7.8-0.2l5.4-5.7c3.9-4.1,6-9.4,6-14.9
		c0-12-9.7-21.7-21.7-21.7s-21.7,9.7-21.7,21.7c0,4.4,1.4,8.7,3.9,12.4l4.5,6.4l-7.8-1c-4.2-0.5-8.3-1.1-12.4-1.7l-4.6-0.8
		c-12.3-2.1-24.3-4.9-35.8-8.3c-4.8-1.4-9.6-3-14.2-4.8l-4.5-1.7C96.1,555.3,57.5,500,39.8,458.1c-23.1-54.6-25.8-118-7.3-173.9
		c2.5-7.6,5.4-15.1,8.6-22.2c21.1-46.7,58-83.2,103.8-102.6l5.9-2.5l-1.1,6.3c-0.2,1.2-0.4,2.4-0.4,3.7c0,12,9.7,21.7,21.7,21.7
		c12,0,21.7-9.7,21.7-21.7c0-5.8-2.3-11.3-6.4-15.4l-4.5-4.4l6.1-1.4c44.5-10.3,92.5-9.8,138.7,1.5c1.5,0.4,3,0.8,4.5,1.1
		c32.4,8.7,57,25.9,71.1,49.8c3,5,6.3,11.8,6.1,19.3c-0.2,7.2-3.7,13.5-7.6,19.8c-6,9.9-13.7,20.3-25.4,21.7
		c-3.1,0.4-6.2,0.1-9.2-0.9l-8.9-2.9l8.6-3.6c8.1-3.4,13.3-11.3,13.3-20c0-12-9.7-21.7-21.7-21.7s-21.7,9.7-21.7,21.7
		c0,2.7,0.5,5.5,1.6,8.1l2.7,6.6l-6.8-1.9c-2.5-0.7-4.9-1.4-7.3-2c-20.4-5.5-40.3-8-59.1-7.3c-32.1,1.1-62,11.7-84.3,29.7
		c-23.1,18.6-39,49.7-43.6,85.3l-0.7,5.1l-4.5-2.5c-5.5-3.1-11.8-4.7-18.2-4.7c-20.6,0-37.4,16.8-37.4,37.4
		c0,20.6,16.8,37.4,37.4,37.4c8.5,0,16.5-2.8,23.2-8.1l3.9-3.1l1.5,4.8c2.2,7,4.9,13.4,7.9,19.1c24.1,45.8,71.5,69.1,120.8,59.3
		c14.8-2.9,25.4-8.7,31.3-17c8.9-12.5,7.5-34.2-3.2-47.2c-9.6-11.7-25.1-13.4-37.5-13.6c-3.2-0.1-6.6,0.2-9.8,0.5
		c-12.5,1-26.6,2.1-30.9-16.3c-2.8-11.9-6-25.5-4.5-38.8c0.2-1.8,0.5-3.6,0.9-5.4l10.6-13.5l-3.8,13.8c2.3,18.7,18.2,32.8,37.1,32.8
		c20.6,0,37.4-16.8,37.4-37.4c0-8.4-2.8-16.4-8-23.1l-4.2-5.4l6.8-0.3c10.1-0.4,21-0.7,31.8-0.3c6.4,0.2,12.9-0.2,19.3-0.5
		c11.8-0.7,23.9-1.4,36,1.4c15.3,3.5,33.8,14,39.6,32.9c3.7,12,2.4,25.7,1.2,39.1l-0.7,7.9l-2.1,0.8c-14.9,5.3-24.9,19.4-24.9,35.2
		c0,15.4,9.3,29,23.6,34.7l2.2,0.9l-0.1,4.6c-0.1,12.1-0.3,25.7-3.4,38.5c-0.7,2.9-1.6,5.7-2.6,8.3c-8.4,22.6-29,41.6-56.6,52.2
		C332.9,588.9,302.3,593.9,267.6,593.9L267.6,593.9z"/>
	<path d="M171,192.1c13.9,0,25.2-11.3,25.2-25.2c0-7-2.8-13.3-7.4-17.9c-12.2,2.8-24.2,6.4-35.9,10.9c-2.2,0.8-4.4,1.8-6.6,2.7
		c-0.2,1.4-0.4,2.8-0.4,4.3C145.8,180.8,157.1,192.1,171,192.1L171,192.1z"/>
	<path d="M149.4,165c-0.1,0.6-0.1,1.2-0.1,1.9c0,12,9.7,21.7,21.7,21.7s21.7-9.7,21.7-21.7c0-5.2-1.8-10.1-5.1-14
		c-11.6,2.8-22.9,6.2-33.5,10.3C152.5,163.7,151,164.4,149.4,165L149.4,165z M171,195.6c-15.8,0-28.7-12.9-28.7-28.7
		c0-1.7,0.2-3.3,0.5-4.9l0.3-1.9l1.8-0.7c2.6-1.1,4.6-2,6.7-2.8c11.5-4.4,23.8-8.1,36.4-11l1.9-0.4l1.4,1.4
		c5.5,5.4,8.5,12.6,8.5,20.3C199.7,182.7,186.9,195.6,171,195.6L171,195.6z"/>
	<path d="M239.3,547.7c-13.9,0-25.2,11.3-25.2,25.2c0,5.4,1.7,10.3,4.5,14.4c12.6,1.6,25.7,2.6,38.9,3c4.3-4.5,7-10.6,7-17.3
		C264.5,559,253.2,547.7,239.3,547.7z"/>
	<path d="M220.7,584c11.9,1.4,23.7,2.3,35.3,2.7c3.3-3.9,5-8.8,5-13.8c0-12-9.7-21.7-21.7-21.7c-12,0-21.7,9.7-21.7,21.7
		C217.6,576.9,218.7,580.7,220.7,584L220.7,584z M259,593.8l-1.6,0c-12.9-0.3-26.1-1.4-39.2-3l-1.5-0.2l-0.9-1.3
		c-3.4-4.8-5.2-10.5-5.2-16.4c0-15.8,12.9-28.7,28.7-28.7s28.7,12.9,28.7,28.7c0,7.3-2.8,14.4-7.9,19.7L259,593.8z"/>
	<path d="M382.6,231.3c0-13.9-11.3-25.2-25.2-25.2s-25.2,11.3-25.2,25.2c0,3.3,0.7,6.5,1.9,9.4c7.2,2,14.5,4.4,21.1,7.6
		c4.3,2.2,7.9,4.8,12.1,6.2C376.3,250.7,382.6,241.8,382.6,231.3L382.6,231.3z"/>
	<path d="M336.7,237.9c6.3,1.8,13.4,4.1,19.9,7.4c1.6,0.8,3.2,1.7,4.7,2.6c1.9,1.1,3.8,2.2,5.7,3c7.4-3.7,12.1-11.2,12.1-19.5
		c0-12-9.7-21.7-21.7-21.7s-21.7,9.7-21.7,21.7C335.7,233.5,336,235.7,336.7,237.9L336.7,237.9z M367.4,258.3l-1.2-0.4
		c-3-1-5.7-2.5-8.3-4c-1.4-0.8-2.8-1.6-4.3-2.4c-6.6-3.3-14.1-5.6-20.5-7.4l-1.6-0.5l-0.6-1.6c-1.4-3.5-2.1-7.1-2.1-10.7
		c0-15.8,12.9-28.7,28.7-28.7s28.7,12.9,28.7,28.7c0,11.5-6.9,21.9-17.5,26.4L367.4,258.3z"/>
	<path d="M419,401.3c-15.8,5.6-27.2,20.7-27.2,38.5c0,17.2,10.7,32,25.8,38c0.3-21.7,0.5-43.4,0.8-65.1
		C418.4,409,418.7,405.2,419,401.3L419,401.3z"/>
	<path d="M415.1,406.8c-12,6.4-19.8,19.1-19.8,33c0,13.6,7.3,25.9,18.9,32.5l0.7-59.7C414.9,410.7,415,408.8,415.1,406.8
		L415.1,406.8z M421,482.9l-4.7-1.9c-17-6.8-28-22.9-28-41.2c0-18.7,11.9-35.5,29.5-41.8l5.1-1.8l-0.5,5.4c-0.3,3.8-0.6,7.5-0.6,11
		L421,482.9z"/>
	<path d="M74.6,384.9c0,22.6,18.3,40.9,40.9,40.9c9.6,0,18.4-3.3,25.4-8.9c-6.7-21-8.5-44.7-5.5-67.7c-5.9-3.3-12.7-5.2-19.9-5.2
		C92.9,344,74.6,362.3,74.6,384.9L74.6,384.9z"/>
	<path d="M115.5,347.5c-20.6,0-37.4,16.8-37.4,37.4c0,20.6,16.8,37.4,37.4,37.4c7.7,0,15-2.3,21.3-6.7c-6-19.9-7.8-42.1-5.2-64.4
		C126.6,348.7,121,347.5,115.5,347.5L115.5,347.5z M115.5,429.2c-24.4,0-44.3-19.9-44.3-44.3c0-24.5,19.9-44.3,44.3-44.3
		c7.5,0,15,1.9,21.6,5.6l2.1,1.1l-0.3,2.3c-3,23-1.2,45.9,5.3,66.2l0.7,2.3l-1.9,1.5C135.1,425.9,125.5,429.2,115.5,429.2
		L115.5,429.2z"/>
	<path d="M263.1,393c22.6,0,40.9-18.3,40.9-40.9c0-9.5-3.3-18.3-8.8-25.3c-10.4,0.4-20.9,0.9-31.3,1c-7.7,0.1-15.6,0.3-22.6,3.5
		c-10,4.6-16.3,14.8-18.7,25.7C225.1,377.4,242.2,393,263.1,393L263.1,393z"/>
	<path d="M226.1,357.3c2.5,18.4,18.3,32.2,37,32.2c20.6,0,37.4-16.8,37.4-37.4c0-7.9-2.4-15.3-7-21.7l-5.4,0.2
		c-8.1,0.3-16.1,0.6-24.1,0.8c-6.9,0.1-14.7,0.2-21.2,3.2C234.7,338.3,228.7,346.6,226.1,357.3L226.1,357.3z M263.1,396.5
		c-22.4,0-41.3-16.7-44-38.9l-0.1-0.6l0.1-0.6c2.9-13.2,10.5-23.4,20.6-28.1c7.9-3.6,16.8-3.7,24-3.8c7.9-0.1,15.9-0.4,23.9-0.7
		l9-0.4l1.1,1.4c6.2,7.9,9.5,17.4,9.5,27.4C307.5,376.6,287.6,396.5,263.1,396.5L263.1,396.5z"/>
</g>
<g>
	<path d="M846.9,378.2c-0.3-55.1,0.1-110.5-1.4-165.4c-0.3-12.5-1-25.5-5.9-36.9c-2,11.9-12.3,21-24.8,21
		c-13.9,0-25.2-11.3-25.2-25.2c0-10.9,6.9-20,16.5-23.6c-6-1.6-12.2-2.2-18.4-1.6c-20.2,2.2-38.3,16.8-45.9,35.7
		c-6,14.7-5.9,31.1-5.8,47c0.3,37.3,0.6,74.6,1,111.8c7.4-7.3,17.6-11.9,28.8-11.9c22.6,0,40.9,18.3,40.9,40.9
		c0,22.6-18.3,40.9-40.9,40.9c-11,0-20.9-4.4-28.3-11.4c0,0.3,0,0.5,0,0.8c0.4,49.6-19.3,105.8-80,102
		c-42.5-2.7-69.1-39.5-69.1-79.7c0-48.6,1.5-97.2,1.6-145.9c0-17.2,3.6-45.2,1.8-70.1c-7.5,9.8-19.2,16.2-32.5,16.2
		c-22.6,0-40.9-18.3-40.9-40.9c0-14,7-26.3,17.8-33.7c-22.2-0.7-46.9,8.9-54.4,29.7c-2.9,8.1-2.9,16.9-2.9,25.4
		c0.2,62.9,0.4,125.9,0.6,188.8c0,12.4,0.6,24.6,1.9,36.5c4.5-4,10.3-6.5,16.7-6.5c13.9,0,25.2,11.3,25.2,25.2s-11.3,25.2-25.2,25.2
		c-3.1,0-6-0.6-8.7-1.6c10.4,36.4,30.4,68.6,66.2,92.9c9.2,6.3,19.3,11.4,29.8,15.7c4.5-6.8,12.2-11.3,21-11.3
		c13.3,0,24,10.3,25,23.3c10.2,1.4,20.5,2,30.9,1.9c41.1-0.6,83-12.5,116.6-36.4c-12.7-1.3-22.6-11.9-22.6-24.9
		c0-13.9,11.3-25.2,25.2-25.2c13.9,0,25.2,11.3,25.2,25.2c1.1-1.2,2.2-2.3,3.2-3.5C843.7,488.2,847.3,428.4,846.9,378.2L846.9,378.2
		z"/>
	<path d="M634.5,588.4c9.3,1.1,18.7,1.6,27.8,1.5c39.5-0.5,77.7-11.7,108.3-31.5c-10.5-4.3-17.7-14.6-17.7-26.4
		c0-15.8,12.9-28.7,28.7-28.7c13,0,24.1,8.7,27.5,20.7c30.8-38.7,34.7-95.3,34.4-145.9l0,0c-0.1-16-0.1-32-0.2-48.1
		c-0.1-38.5-0.2-78.4-1.2-117.3c-0.3-9.5-0.7-18.3-2.6-26.5c-5,8.4-14.2,13.9-24.6,13.9c-15.8,0-28.7-12.9-28.7-28.7
		c0-8.5,3.8-16.4,10.1-21.8c-2.8-0.2-5.5-0.2-8.1,0.1c-18.5,2-35.8,15.5-43.1,33.5c-5.8,14.3-5.7,31-5.5,45.7l0.9,104.5
		c7.4-5.2,16.2-8,25.4-8c24.4,0,44.3,19.9,44.3,44.3c0,24.5-19.9,44.3-44.3,44.3c-9,0-17.6-2.7-24.9-7.6
		c-0.9,34.7-11.5,64-29.4,81.1c-14.1,13.3-32.3,19.4-54.2,18c-41.2-2.6-72.4-38.3-72.4-83.1c0-25.1,0.4-50.6,0.8-75.3
		c0.4-23.1,0.7-47.1,0.8-70.6c0-6.3,0.5-14.1,1-22.3c0.8-12.4,1.6-26.1,1.2-39.4c-8,7.2-18.4,11.2-29.4,11.2
		c-24.4,0-44.3-19.9-44.3-44.3c0-11.1,4.2-21.7,11.5-29.8c-17.3,1.9-35.4,10.5-41.4,27c-2.7,7.6-2.7,16.1-2.7,24.2l0.6,188.8
		c0,10.5,0.5,20.6,1.3,30.2c4.2-2.4,9-3.6,13.8-3.6c15.8,0,28.7,12.9,28.7,28.7c0,17-15,30.8-32.3,28.4c11.6,36.4,32.3,64.2,63,85.1
		c7.8,5.3,16.8,10.1,26.6,14.3c5.4-6.6,13.5-10.5,22.2-10.5C620.3,564.8,632.1,575,634.5,588.4L634.5,588.4z M659.6,596.9
		c-9.4,0-19-0.6-28.6-1.9l-2.8-0.4l-0.2-2.8c-0.8-11.3-10.3-20.1-21.5-20.1c-7.3,0-14,3.6-18.1,9.7l-1.6,2.4l-2.6-1.1
		c-11.3-4.6-21.5-10-30.4-16c-33.8-23-55.9-54-67.5-94.8l-1.9-6.6l6.5,2.4c15.1,5.6,29.2-5.8,29.2-20.3c0-12-9.7-21.7-21.7-21.7
		c-5.3,0-10.4,2-14.4,5.6l-5.1,4.5L478,429c-1.2-11.6-1.8-24-1.9-36.9l-0.6-188.8c0-8.4-0.1-17.9,3.1-26.6c8.4-23.1,35-32.7,57.8-32
		l10.6,0.3l-8.8,6c-10.2,7-16.3,18.5-16.3,30.8c0,20.6,16.8,37.4,37.4,37.4c11.8,0,22.6-5.4,29.8-14.8l5.6-7.4l0.6,9.2
		c1.1,16.2,0.1,33.4-0.8,48.5c-0.5,8.1-1,15.8-1,21.9c0,23.6-0.4,47.5-0.8,70.7c-0.4,24.6-0.8,50.1-0.8,75.2
		c0,35.8,22.6,73.5,65.8,76.2c19.9,1.3,36.4-4.2,49-16.1c17.7-16.7,27.6-46.8,27.3-82.4l-0.2-9.2l6.1,5.9c7,6.7,16.2,10.4,25.9,10.4
		c20.6,0,37.4-16.8,37.4-37.4c0-20.6-16.8-37.4-37.4-37.4c-9.9,0-19.3,3.9-26.3,10.9l-5.9,5.8l-1-120.1c-0.1-15.3-0.3-32.7,6-48.3
		c8.2-20.3,27.8-35.5,48.8-37.8c6.2-0.7,12.9-0.1,19.6,1.6l10.7,2.8l-10.4,3.8c-8.5,3.1-14.3,11.3-14.3,20.3
		c0,12,9.7,21.7,21.7,21.7c10.6,0,19.6-7.6,21.3-18.1l2-11.6l4.6,10.8c5,11.7,5.8,24.7,6.2,38.2c1.1,39,1.2,78.9,1.2,117.5
		c0,16,0.1,32,0.2,48l0,0c0.3,52.8-3.9,112.2-37.8,152.6c-0.7,0.8-1.4,1.6-2.1,2.4l-7.2,8.1v-9.1c0-12-9.7-21.7-21.7-21.7
		c-12,0-21.7,9.7-21.7,21.7c0,11.1,8.4,20.3,19.5,21.5l9.2,1l-7.5,5.3c-32.8,23.3-74.9,36.5-118.6,37.1
		C661.5,596.9,660.5,596.9,659.6,596.9L659.6,596.9z"/>
	<path d="M789.7,171.6c0,13.9,11.3,25.2,25.2,25.2c12.5,0,22.8-9.1,24.8-21c-0.4-0.9-0.7-1.7-1.1-2.6c-6.3-12.7-18.6-21.6-32.3-25.2
		C796.6,151.5,789.7,160.7,789.7,171.6L789.7,171.6z"/>
	<path d="M806.4,151.7c-8,3.4-13.3,11.3-13.3,19.9c0,12,9.7,21.7,21.7,21.7c10.3,0,19-7.1,21.2-17.1c-0.2-0.5-0.4-0.9-0.6-1.4
		C830,163.9,819.2,155.3,806.4,151.7L806.4,151.7z M814.9,200.3c-15.8,0-28.7-12.9-28.7-28.7c0-11.9,7.6-22.7,18.8-26.8l1-0.4
		l1.1,0.3c15.4,4.1,28,13.9,34.5,27.1c0.3,0.6,0.6,1.3,0.9,2l0.7,1.7l-0.2,1C840.7,190.2,828.9,200.3,814.9,200.3L814.9,200.3z"/>
	<path d="M606.4,568.2c-8.8,0-16.5,4.5-21,11.3c14.5,5.9,30,9.9,46,12C630.4,578.5,619.7,568.2,606.4,568.2z"/>
	<path d="M591.1,578c11.5,4.3,23.5,7.4,36,9.4c-2.6-9.1-11-15.7-20.8-15.7C600.6,571.7,595.2,574,591.1,578L591.1,578z M635.2,595.6
		L631,595c-16.4-2.2-32.1-6.3-46.8-12.3l-4-1.6l2.4-3.5c5.3-8,14.3-12.8,23.9-12.8c14.9,0,27.4,11.7,28.5,26.5L635.2,595.6z"/>
	<path d="M781.6,506.9c-13.9,0-25.2,11.3-25.2,25.2c0,13,9.9,23.6,22.6,24.9c10.1-7.2,19.5-15.5,27.8-24.9
		C806.8,518.1,795.5,506.9,781.6,506.9L781.6,506.9z"/>
	<path d="M781.6,510.3c-12,0-21.7,9.7-21.7,21.7c0,10.7,7.7,19.6,18.2,21.3c9.1-6.6,17.6-14.2,25.2-22.6
		C802.6,519.4,793.1,510.3,781.6,510.3z M779.9,560.6l-1.3-0.1c-14.7-1.5-25.7-13.7-25.7-28.4c0-15.8,12.9-28.7,28.7-28.7
		c15.8,0,28.7,12.9,28.7,28.7v1.3l-0.9,1c-8.5,9.5-18,18.1-28.4,25.5L779.9,560.6z"/>
	<path d="M523.4,447.4c0-13.9-11.3-25.2-25.2-25.2c-6.5,0-12.3,2.5-16.7,6.5c1.5,14.6,4.1,28.7,8,42.3c2.7,1,5.7,1.6,8.7,1.6
		C512.1,472.6,523.4,461.3,523.4,447.4z"/>
	<path d="M492.3,468.2c14.3,4.2,27.6-6.9,27.6-20.8c0-12-9.7-21.7-21.7-21.7c-4.7,0-9.3,1.6-13.1,4.5
		C486.6,443.5,489,456.3,492.3,468.2z M498.2,476.1c-3.3,0-6.6-0.6-9.9-1.9l-1.6-0.6l-0.5-1.7c-3.8-13.3-6.5-27.7-8.1-42.9l-0.2-1.8
		l1.3-1.2c5.3-4.8,12.1-7.4,19.1-7.4c15.8,0,28.7,12.9,28.7,28.7C526.9,463.2,514,476.1,498.2,476.1L498.2,476.1z"/>
	<path d="M518.6,181.8c0,22.6,18.3,40.9,40.9,40.9c13.3,0,25.1-6.4,32.5-16.2c-1.3-18.5-5.5-35.4-16.3-44.8
		c-10.4-9.1-24.6-13-38.5-13.6c-0.3,0-0.6,0-0.9,0C525.6,155.5,518.6,167.8,518.6,181.8L518.6,181.8z"/>
	<path d="M537.4,151.6c-9.6,7.1-15.4,18.3-15.4,30.2c0,20.6,16.8,37.4,37.4,37.4c11.3,0,21.8-5,29-13.8c-1.6-20.2-6.5-33.7-15-41.1
		C562.4,154.7,547.8,152.1,537.4,151.6L537.4,151.6z M559.4,226.2c-24.4,0-44.3-19.9-44.3-44.3c0-14.6,7.2-28.3,19.3-36.6l0.9-0.6
		l2.1,0.1c11.5,0.5,28,3.4,40.6,14.4c10.1,8.9,15.8,24.3,17.4,47.2l0.1,1.3l-0.8,1C586.2,219.8,573.4,226.2,559.4,226.2L559.4,226.2
		z"/>
	<path d="M806.8,369.9c0-22.6-18.3-40.9-40.9-40.9c-11.2,0-21.4,4.5-28.8,11.9c0.2,19.5,0.3,39,0.5,58.4
		c7.3,7.1,17.3,11.4,28.3,11.4C788.5,410.8,806.8,392.5,806.8,369.9L806.8,369.9z"/>
	<path d="M741.1,397.8c6.9,6.1,15.6,9.5,24.8,9.5c20.6,0,37.4-16.8,37.4-37.4c0-20.6-16.8-37.4-37.4-37.4c-9.4,0-18.4,3.5-25.3,9.9
		L741.1,397.8z M765.9,414.3c-11.5,0-22.4-4.4-30.7-12.4l-1.1-1l-0.5-61.4l1-1c8.4-8.3,19.5-12.9,31.2-12.9
		c24.4,0,44.3,19.9,44.3,44.3S790.3,414.3,765.9,414.3L765.9,414.3z"/>
</g>
<g>
	<path d="M1227.1,489c5.1,6.8,8.2,15.3,8.2,24.5c0,22.6-18.3,40.9-40.9,40.9c-22.6,0-40.9-18.3-40.9-40.9c0-5.8,1.2-11.3,3.4-16.3
		c-19.4,3.1-38.8,3.8-60.4-4.9c-33.2-13.3-60.7-41-73.7-74.4c-15.2-39.1-12.8-92.6,9.3-131.4c-13.7-0.3-24.6-11.4-24.6-25.1
		c0-13.9,11.3-25.2,25.2-25.2c12.2,0,22.4,8.7,24.7,20.2c29.1-23.3,69.5-30.4,105.3-21c10.8,2.8,21.6,6.2,32.6,8
		c-8.1-7.5-13.1-18.1-13.1-30c0-22.6,18.3-40.9,40.9-40.9c1.7,0,3.4,0.1,5.1,0.3c-4.3-3.7-8.7-6.9-12.7-9.2
		c-23.2-13.5-55.9-20.2-98.1-20.2c-29.7,0-57.5,4.9-83.5,14.6c-13,4.9-25.2,10.9-36.5,18c-2.3,1.4-4.5,2.9-6.7,4.4
		c-53.4,36-86,94.8-91,158.8c-1.5,19.5-0.4,39.2,2.7,58.5c4.3-7.6,12.4-12.8,21.8-12.8c13.9,0,25.2,11.3,25.2,25.2
		c0,13.9-11.3,25.2-25.2,25.2c-5.3,0-10.2-1.7-14.3-4.5c4.4,15,10,29.8,16.8,43.9c14.2,29.5,33.6,57.2,60,76.6
		c38.6,28.4,90,38.2,137.1,38.2c32.9,0,71.7-3.5,100.5-21c14.5-8.8,26.5-22.9,28.9-39.7C1255.6,509.4,1244.3,493.3,1227.1,489
		L1227.1,489z"/>
	<path d="M915.3,437.5c4,12.4,8.8,24.4,14.2,35.7c15.8,32.8,35.6,58.1,58.9,75.3c42.2,31,96.7,37.5,135,37.5
		c43.6,0,75.9-6.7,98.7-20.5c15.1-9.1,25.3-23,27.3-37.2c1.9-13.7-3.7-25.9-14.2-32.3c2.4,5.5,3.6,11.4,3.6,17.4
		c0,24.4-19.9,44.3-44.3,44.3c-24.5,0-44.3-19.9-44.3-44.3c0-4.1,0.6-8.1,1.7-12c-16.4,2.2-35.5,2.5-56.5-5.9
		c-34.1-13.7-62.3-42.2-75.6-76.4c-15.7-40.2-12.7-91.6,7-129.8c-13-2.8-22.6-14.2-22.6-28c0-15.8,12.9-28.7,28.7-28.7
		c11.8,0,22.2,7.3,26.6,17.9c28.8-20.9,68.2-28,104.3-18.6c2.8,0.7,5.6,1.5,8.4,2.3c4.6,1.3,9.4,2.6,14.2,3.7
		c-4.8-7.2-7.5-15.8-7.5-24.6c0-22.7,17.2-41.5,39.2-44c-1.4-1-2.9-1.9-4.3-2.7c-22.6-13.1-55-19.7-96.4-19.7
		c-29.1,0-56.8,4.8-82.3,14.4c-12.7,4.8-24.8,10.7-35.9,17.7c-2.2,1.4-4.4,2.8-6.6,4.3c-51.8,34.9-84.5,91.9-89.5,156.2
		c-1.3,16-0.8,32.7,1.5,49.8c5.2-4.9,12.2-7.8,19.5-7.8c15.8,0,28.7,12.9,28.7,28.7c0,15.8-12.9,28.7-28.7,28.7
		C920.9,438.9,918,438.4,915.3,437.5L915.3,437.5z M1123.4,593c-39.3,0-95.4-6.7-139.1-38.9c-24.3-17.8-44.8-44-61.1-77.9
		c-6.7-14-12.4-28.9-17-44.4l-2.8-9.4l8.1,5.6c3.6,2.5,7.9,3.8,12.3,3.8c12,0,21.7-9.7,21.7-21.7c0-12-9.7-21.7-21.7-21.7
		c-7.7,0-14.9,4.2-18.8,11l-4.9,8.6l-1.6-9.7c-3.3-20.4-4.2-40.3-2.7-59.3c5.2-66.5,39-125.3,92.5-161.4c2.2-1.5,4.5-3,6.8-4.5
		c11.5-7.2,24-13.4,37.2-18.3c26.2-9.8,54.8-14.8,84.7-14.8c42.6,0,76.2,7,99.9,20.6c4.4,2.5,9,5.9,13.3,9.6l8.6,7.5l-11.3-1.4
		c-1.5-0.2-3.1-0.3-4.6-0.3c-20.6,0-37.4,16.8-37.4,37.4c0,10.5,4.3,20.2,12,27.4l8.4,7.8l-11.4-1.8c-8.4-1.3-16.6-3.6-24.6-5.8
		c-2.8-0.8-5.5-1.5-8.3-2.2c-35.7-9.4-74.9-1.6-102.2,20.4l-4.5,3.6l-1.1-5.6c-2-10.1-11-17.4-21.3-17.4c-12,0-21.7,9.7-21.7,21.7
		c0,11.9,9.3,21.4,21.2,21.7l5.8,0.1l-2.9,5.1c-20.7,36.3-24.4,89.1-9.1,128.4c12.6,32.4,39.4,59.4,71.7,72.4
		c21.9,8.8,41.1,7.4,58.6,4.7l6.3-1l-2.5,5.8c-2.1,4.7-3.1,9.8-3.1,14.9c0,20.6,16.8,37.4,37.4,37.4c20.6,0,37.4-16.8,37.4-37.4
		c0-8.1-2.6-15.9-7.5-22.4l-5.9-7.8l9.5,2.3c19.4,4.8,31.3,23.2,28.4,43.7c-2.3,16.4-13.5,31.8-30.6,42.1
		C1201.9,586,1168.4,593,1123.4,593L1123.4,593z"/>
	<path d="M949.1,410.2c0-13.9-11.3-25.2-25.2-25.2c-9.4,0-17.5,5.2-21.8,12.8c1.8,11.2,4.3,22.3,7.5,33.2c4.1,2.8,9,4.5,14.3,4.5
		C937.8,435.4,949.1,424.1,949.1,410.2L949.1,410.2z"/>
	<path d="M912.6,428.7c3.4,2.1,7.3,3.2,11.3,3.2c12,0,21.7-9.7,21.7-21.7c0-12-9.7-21.7-21.7-21.7c-7.3,0-14.2,3.8-18.2,10
		C907.4,408.6,909.7,418.8,912.6,428.7z M923.9,438.9c-5.8,0-11.4-1.8-16.3-5.1l-1-0.7l-0.3-1.2c-3.2-11-5.8-22.3-7.6-33.6l-0.2-1.2
		l0.6-1.1c5.1-9,14.6-14.5,24.8-14.5c15.8,0,28.7,12.9,28.7,28.7C952.6,426,939.7,438.9,923.9,438.9L923.9,438.9z"/>
	<path d="M1032.7,236.2c-13.9,0-25.2,11.3-25.2,25.2c0,13.7,11,24.8,24.6,25.1c6.3-11,14.1-20.9,23.6-28.9c0.5-0.4,1.1-0.8,1.6-1.3
		C1055.1,244.8,1044.9,236.2,1032.7,236.2L1032.7,236.2z"/>
	<path d="M1032.7,239.6c-12,0-21.7,9.7-21.7,21.7c0,11.2,8.3,20.3,19.2,21.5c6.6-11.1,14.4-20.5,23.3-27.9
		C1050.8,246,1042.3,239.6,1032.7,239.6z M1034.2,290.1l-2.1,0c-15.7-0.4-28-12.9-28-28.6c0-15.8,12.9-28.7,28.7-28.7
		c13.6,0,25.4,9.7,28.1,23l0.4,2.1l-3.2,2.6c-8.7,7.3-16.4,16.7-22.8,27.9L1034.2,290.1z"/>
	<path d="M1194.4,554.4c22.6,0,40.9-18.3,40.9-40.9c0-9.2-3.1-17.6-8.2-24.5c-3.4-0.8-7.1-1.3-11-1.1c-21.1,1-40.1,6.2-59.2,9.2
		c-2.2,5-3.4,10.5-3.4,16.3C1153.5,536.1,1171.8,554.4,1194.4,554.4L1194.4,554.4z"/>
	<path d="M1159.4,500.3c-1.6,4.2-2.4,8.7-2.4,13.2c0,20.6,16.8,37.4,37.4,37.4c20.6,0,37.4-16.8,37.4-37.4c0-7.7-2.3-15.1-6.8-21.4
		c-2.9-0.6-5.8-0.8-8.7-0.7c-14,0.6-27.2,3.3-40,5.8C1170.6,498.3,1165,499.4,1159.4,500.3L1159.4,500.3z M1194.4,557.9
		c-24.4,0-44.3-19.9-44.3-44.3c0-6.1,1.2-12.1,3.7-17.7l0.8-1.7l1.9-0.3c6.1-1,12.3-2.2,18.5-3.4c13.1-2.6,26.6-5.2,41.1-5.9
		c4-0.2,8,0.2,11.9,1.2l1.2,0.3l0.7,1c5.8,7.8,8.9,16.9,8.9,26.6C1238.7,538,1218.9,557.9,1194.4,557.9L1194.4,557.9z"/>
	<path d="M1182.1,213.4c0,11.9,5.1,22.5,13.1,30c2.7,0.4,5.5,0.9,8.2,1.1c13.9,1,28.9-2.2,38.7-12.2c5.5-5.5,8-11.6,8.5-17.7
		c1.2-15-10.2-30.7-22.7-41.6c-1.7-0.2-3.3-0.3-5.1-0.3C1200.4,172.5,1182.1,190.8,1182.1,213.4L1182.1,213.4z"/>
	<path d="M1196.9,240.1c2.3,0.4,4.5,0.7,6.8,0.8c14.9,1.1,28-3,36-11.1c4.6-4.6,7.1-9.9,7.5-15.6c0.9-11.5-6.8-25.7-20.7-38
		c-1.2-0.1-2.4-0.2-3.6-0.2c-20.6,0-37.4,16.8-37.4,37.4C1185.6,223.5,1189.6,233,1196.9,240.1L1196.9,240.1z M1208.2,248
		c-1.6,0-3.3-0.1-4.9-0.2c-2.9-0.2-5.7-0.6-8.5-1.1l-1-0.2l-0.8-0.7c-9.1-8.4-14.3-20.2-14.3-32.5c0-24.4,19.9-44.3,44.3-44.3
		c1.9,0,3.7,0.1,5.5,0.4l1.1,0.1l0.8,0.7c7.7,6.7,25.4,24.4,23.8,44.5c-0.6,7.4-3.8,14.1-9.5,19.9
		C1236.2,243.3,1223.1,248,1208.2,248L1208.2,248z"/>
</g>
<g>
	<path d="M1618.2,489c5.1,6.8,8.2,15.3,8.2,24.5c0,22.6-18.3,40.9-40.9,40.9c-22.6,0-40.9-18.3-40.9-40.9c0-5.8,1.2-11.3,3.4-16.3
		c-19.4,3.1-38.8,3.8-60.4-4.9c-33.2-13.3-60.7-41-73.7-74.4c-15.2-39.1-12.8-92.6,9.3-131.4c-13.7-0.3-24.6-11.4-24.6-25.1
		c0-13.9,11.3-25.2,25.2-25.2c12.2,0,22.4,8.7,24.7,20.2c29.1-23.3,69.5-30.4,105.3-21c10.8,2.8,21.6,6.2,32.6,8
		c-8.1-7.5-13.1-18.1-13.1-30c0-22.6,18.3-40.9,40.9-40.9c1.7,0,3.4,0.1,5.1,0.3c-4.3-3.7-8.7-6.9-12.7-9.2
		c-23.2-13.5-55.9-20.2-98.1-20.2c-29.7,0-57.5,4.9-83.5,14.6c-13,4.9-25.2,10.9-36.5,18c-2.3,1.4-4.5,2.9-6.7,4.4
		c-53.4,36-86,94.8-91,158.8c-1.5,19.5-0.4,39.2,2.7,58.5c4.3-7.6,12.4-12.8,21.8-12.8c13.9,0,25.2,11.3,25.2,25.2
		c0,13.9-11.3,25.2-25.2,25.2c-5.3,0-10.2-1.7-14.3-4.5c4.4,15,10,29.8,16.8,43.9c14.2,29.5,33.6,57.2,60,76.6
		c38.6,28.4,90,38.2,137.1,38.2c32.9,0,71.7-3.5,100.5-21c14.5-8.8,26.5-22.9,28.9-39.7C1646.8,509.4,1635.4,493.3,1618.2,489
		L1618.2,489z"/>
	<path d="M1306.4,437.5c4,12.4,8.8,24.4,14.2,35.7c15.8,32.8,35.6,58.1,58.9,75.3c42.2,31,96.7,37.5,135,37.5
		c43.6,0,75.9-6.7,98.7-20.5c15.1-9.1,25.3-23,27.3-37.2c1.9-13.7-3.7-25.9-14.2-32.3c2.4,5.5,3.6,11.4,3.6,17.4
		c0,24.4-19.9,44.3-44.3,44.3c-24.5,0-44.3-19.9-44.3-44.3c0-4.1,0.6-8.1,1.7-12c-16.4,2.2-35.5,2.5-56.5-5.9
		c-34.1-13.7-62.3-42.2-75.6-76.4c-15.7-40.2-12.7-91.6,7-129.8c-13-2.8-22.6-14.2-22.6-28c0-15.8,12.9-28.7,28.7-28.7
		c11.8,0,22.2,7.3,26.6,17.9c28.8-20.9,68.2-28,104.3-18.6c2.8,0.7,5.6,1.5,8.4,2.3c4.6,1.3,9.4,2.6,14.2,3.7
		c-4.8-7.2-7.5-15.8-7.5-24.6c0-22.7,17.2-41.5,39.2-44c-1.4-1-2.9-1.9-4.3-2.7c-22.6-13.1-55-19.7-96.4-19.7
		c-29.1,0-56.8,4.8-82.3,14.4c-12.7,4.8-24.8,10.7-35.9,17.7c-2.2,1.4-4.4,2.8-6.6,4.3c-51.8,34.9-84.5,91.9-89.5,156.2
		c-1.3,16-0.8,32.7,1.5,49.8c5.2-4.9,12.2-7.8,19.5-7.8c15.8,0,28.7,12.9,28.7,28.7c0,15.8-12.9,28.7-28.7,28.7
		C1312.1,438.9,1309.2,438.4,1306.4,437.5L1306.4,437.5z M1514.6,593c-39.3,0-95.4-6.7-139.1-38.9c-24.3-17.8-44.8-44-61.1-77.9
		c-6.7-14-12.4-28.9-17-44.4l-2.8-9.4l8.1,5.6c3.6,2.5,7.9,3.8,12.3,3.8c12,0,21.7-9.7,21.7-21.7c0-12-9.7-21.7-21.7-21.7
		c-7.7,0-14.9,4.2-18.8,11l-4.9,8.6l-1.6-9.7c-3.3-20.4-4.2-40.3-2.7-59.3c5.2-66.5,39-125.3,92.5-161.4c2.2-1.5,4.5-3,6.8-4.5
		c11.5-7.2,24-13.4,37.2-18.3c26.2-9.8,54.8-14.8,84.7-14.8c42.6,0,76.2,7,99.9,20.6c4.4,2.5,9,5.9,13.3,9.6l8.6,7.5l-11.3-1.4
		c-1.5-0.2-3.1-0.3-4.6-0.3c-20.6,0-37.4,16.8-37.4,37.4c0,10.5,4.3,20.2,12,27.4l8.4,7.8l-11.4-1.8c-8.4-1.3-16.6-3.6-24.6-5.8
		c-2.8-0.8-5.5-1.5-8.3-2.2c-35.7-9.4-74.9-1.6-102.2,20.4l-4.5,3.6l-1.1-5.6c-2-10.1-11-17.4-21.3-17.4c-12,0-21.7,9.7-21.7,21.7
		c0,11.9,9.3,21.4,21.2,21.7l5.8,0.1l-2.9,5.1c-20.7,36.3-24.4,89.1-9.1,128.4c12.6,32.4,39.4,59.4,71.7,72.4
		c21.9,8.8,41.1,7.4,58.6,4.7l6.3-1l-2.5,5.8c-2.1,4.7-3.1,9.8-3.1,14.9c0,20.6,16.8,37.4,37.4,37.4c20.6,0,37.4-16.8,37.4-37.4
		c0-8.1-2.6-15.9-7.5-22.4l-5.9-7.8l9.5,2.3c19.4,4.8,31.3,23.2,28.4,43.7c-2.3,16.4-13.5,31.8-30.6,42.1
		C1593,586,1559.6,593,1514.6,593L1514.6,593z"/>
	<path d="M1340.2,410.2c0-13.9-11.3-25.2-25.2-25.2c-9.4,0-17.5,5.2-21.8,12.8c1.8,11.2,4.3,22.3,7.5,33.2c4.1,2.8,9,4.5,14.3,4.5
		C1329,435.4,1340.2,424.1,1340.2,410.2L1340.2,410.2z"/>
	<path d="M1303.8,428.7c3.4,2.1,7.3,3.2,11.3,3.2c12,0,21.7-9.7,21.7-21.7c0-12-9.7-21.7-21.7-21.7c-7.3,0-14.2,3.8-18.2,10
		C1298.6,408.6,1300.9,418.8,1303.8,428.7z M1315,438.9c-5.8,0-11.4-1.8-16.3-5.1l-1-0.7l-0.3-1.2c-3.2-11-5.8-22.3-7.6-33.6
		l-0.2-1.2l0.6-1.1c5.1-9,14.6-14.5,24.8-14.5c15.8,0,28.7,12.9,28.7,28.7C1343.7,426,1330.9,438.9,1315,438.9L1315,438.9z"/>
	<path d="M1423.9,236.2c-13.9,0-25.2,11.3-25.2,25.2c0,13.7,11,24.8,24.6,25.1c6.3-11,14.1-20.9,23.6-28.9c0.5-0.4,1.1-0.8,1.6-1.3
		C1446.3,244.8,1436.1,236.2,1423.9,236.2L1423.9,236.2z"/>
	<path d="M1423.9,239.6c-12,0-21.7,9.7-21.7,21.7c0,11.2,8.3,20.3,19.2,21.5c6.6-11.1,14.4-20.5,23.3-27.9
		C1441.9,246,1433.5,239.6,1423.9,239.6z M1425.3,290.1l-2.1,0c-15.7-0.4-28-12.9-28-28.6c0-15.8,12.9-28.7,28.7-28.7
		c13.6,0,25.4,9.7,28.1,23l0.4,2.1l-3.2,2.6c-8.7,7.3-16.4,16.7-22.8,27.9L1425.3,290.1z"/>
	<path d="M1585.6,554.4c22.6,0,40.9-18.3,40.9-40.9c0-9.2-3.1-17.6-8.2-24.5c-3.4-0.8-7.1-1.3-11-1.1c-21.1,1-40.1,6.2-59.2,9.2
		c-2.2,5-3.4,10.5-3.4,16.3C1544.7,536.1,1563,554.4,1585.6,554.4L1585.6,554.4z"/>
	<path d="M1550.6,500.3c-1.6,4.2-2.4,8.7-2.4,13.2c0,20.6,16.8,37.4,37.4,37.4c20.6,0,37.4-16.8,37.4-37.4c0-7.7-2.3-15.1-6.8-21.4
		c-2.9-0.6-5.8-0.8-8.7-0.7c-14,0.6-27.2,3.3-40,5.8C1561.8,498.3,1556.2,499.4,1550.6,500.3L1550.6,500.3z M1585.6,557.9
		c-24.4,0-44.3-19.9-44.3-44.3c0-6.1,1.2-12.1,3.7-17.7l0.8-1.7l1.9-0.3c6.1-1,12.3-2.2,18.5-3.4c13.1-2.6,26.6-5.2,41.1-5.9
		c4-0.2,8,0.2,11.9,1.2l1.2,0.3l0.7,1c5.8,7.8,8.9,16.9,8.9,26.6C1629.9,538,1610,557.9,1585.6,557.9L1585.6,557.9z"/>
	<path d="M1573.3,213.4c0,11.9,5.1,22.5,13.1,30c2.7,0.4,5.5,0.9,8.2,1.1c13.9,1,28.9-2.2,38.7-12.2c5.5-5.5,8-11.6,8.5-17.7
		c1.2-15-10.2-30.7-22.7-41.6c-1.7-0.2-3.3-0.3-5.1-0.3C1591.6,172.5,1573.3,190.8,1573.3,213.4L1573.3,213.4z"/>
	<path d="M1588.1,240.1c2.3,0.4,4.5,0.7,6.8,0.8c14.9,1.1,28-3,36-11.1c4.6-4.6,7.1-9.9,7.5-15.6c0.9-11.5-6.8-25.7-20.7-38
		c-1.2-0.1-2.4-0.2-3.6-0.2c-20.6,0-37.4,16.8-37.4,37.4C1576.8,223.5,1580.8,233,1588.1,240.1L1588.1,240.1z M1599.4,248
		c-1.6,0-3.3-0.1-4.9-0.2c-2.9-0.2-5.7-0.6-8.5-1.1l-1-0.2l-0.8-0.7c-9.1-8.4-14.3-20.2-14.3-32.5c0-24.4,19.9-44.3,44.3-44.3
		c1.9,0,3.7,0.1,5.5,0.4l1.1,0.1l0.8,0.7c7.7,6.7,25.4,24.4,23.8,44.5c-0.6,7.4-3.8,14.1-9.5,19.9
		C1627.3,243.3,1614.2,248,1599.4,248L1599.4,248z"/>
</g>
<g>
	<path d="M1792,540c6.7,0,12.7,2.7,17.2,6.9c0.3-3.4,0.3-6.9,0.3-10.3c0-81.7-3.7-163.3-3-245c0.2-24.9,0.4-49.9,1.5-74.8
		c0.8-17.6,3.4-39.1-8.9-53.7c-10.4-12.3-30.6-17.1-49.6-15.5c10.4,7.4,17.3,19.6,17.3,33.3c0,22.6-18.3,40.9-40.9,40.9
		c-10,0-19.1-3.6-26.2-9.5c0.3,61.5-2.1,123.1-2.7,184.6c3.9-2.4,8.4-3.8,13.2-3.8c13.9,0,25.2,11.3,25.2,25.2s-11.3,25.2-25.2,25.2
		c-4.9,0-9.4-1.4-13.2-3.8c0.3,34.7,1.6,69.4,4.7,104.1c0.7,8,1.8,16.5,6.6,23c7.4,10.2,21.2,12.9,33.6,14.5
		c5.6,0.7,11.2,1.4,16.9,1.7c5,0.2,9.9,0.1,14.8-0.5c-4.2-4.5-6.8-10.5-6.8-17.1C1766.8,551.3,1778.1,540,1792,540L1792,540z"/>
	<path d="M1700.6,445.2c0.5,36.3,2,68.5,4.6,98.2c0.7,7.5,1.7,15.4,5.9,21.2c6.6,9.1,19.6,11.6,31.2,13.1c5,0.7,10.9,1.4,16.6,1.7
		c2.9,0.1,5.6,0.1,8.2,0c-2.5-4.3-3.8-9.2-3.8-14.2c0-15.8,12.9-28.7,28.7-28.7c5,0,9.8,1.3,14,3.7c0-1.2,0-2.4,0-3.7
		c0-37.1-0.8-74.8-1.5-111.3c-0.9-43.8-1.9-89.1-1.4-133.7l0-4.8c0.2-23,0.4-46.7,1.5-70.1l0.3-5.5c0.9-15.8,1.8-33.7-8.4-45.8
		c-7.4-8.8-21.8-14.2-38.1-14.6c7.5,8.1,11.9,18.9,11.9,30.1c0,24.4-19.9,44.3-44.3,44.3c-8,0-15.9-2.2-22.7-6.3
		c0,34.2-0.7,68.8-1.4,102.4c-0.5,22.9-1,46.6-1.2,69.9c3.1-1.1,6.4-1.7,9.7-1.7c15.8,0,28.7,12.9,28.7,28.7
		c0,15.8-12.9,28.7-28.7,28.7C1707,447,1703.7,446.4,1700.6,445.2L1700.6,445.2z M1763.4,586.5c-1.6,0-3.2,0-4.8-0.1
		c-6-0.3-12-1-17.2-1.7c-14-1.9-28.1-5.1-36-15.9c-5.3-7.3-6.5-16.6-7.2-24.7c-2.8-31.4-4.3-65.6-4.7-104.4l-0.1-6.3l5.4,3.3
		c3.5,2.2,7.4,3.3,11.4,3.3c12,0,21.7-9.7,21.7-21.7s-9.7-21.7-21.7-21.7c-4,0-7.9,1.1-11.4,3.3l-5.4,3.3l0.1-6.3
		c0.2-25.2,0.8-50.9,1.3-75.6c0.8-35.7,1.6-72.7,1.4-108.9l0-7.5l5.7,4.8c6.7,5.6,15.2,8.7,24,8.7c20.6,0,37.4-16.8,37.4-37.4
		c0-12.1-5.9-23.5-15.8-30.5l-7.8-5.5l9.5-0.8c17.4-1.5,40.2,2.2,52.6,16.8c12,14.2,10.9,33.6,10,50.7l-0.3,5.4
		c-1,23.2-1.2,46.9-1.4,69.8l0,4.8c-0.4,44.5,0.5,89.8,1.4,133.5c0.8,36.5,1.5,74.3,1.5,111.4c0,3.5-0.1,7.1-0.3,10.6l-0.5,7.3
		l-5.3-5c-4.1-3.8-9.4-6-14.8-6c-12,0-21.7,9.7-21.7,21.7c0,5.4,2.1,10.7,5.9,14.8l4.6,4.9l-6.6,0.9
		C1770.7,586.3,1767.2,586.5,1763.4,586.5L1763.4,586.5z"/>
	<path d="M1805.9,561.5c2.1-4.6,2.9-9.5,3.3-14.6c-4.5-4.2-10.6-6.9-17.2-6.9c-13.9,0-25.2,11.3-25.2,25.2c0,6.6,2.6,12.6,6.8,17.1
		c1.4-0.2,2.7-0.4,4.1-0.7C1789.5,579.2,1800.9,572.4,1805.9,561.5z"/>
	<path d="M1792,543.5c-12,0-21.7,9.7-21.7,21.7c0,4.9,1.7,9.6,4.7,13.4c0.7-0.1,1.4-0.2,2-0.4c12-2.5,21.6-9.3,25.8-18.2l0,0
		c1.5-3.2,2.4-6.8,2.8-11.6C1801.7,545.2,1796.9,543.5,1792,543.5z M1772.3,586.1l-1.2-1.3c-5-5.4-7.7-12.3-7.7-19.5
		c0-15.8,12.9-28.7,28.7-28.7c7.3,0,14.2,2.8,19.6,7.8l1.2,1.1l-0.1,1.6c-0.5,6.5-1.6,11.4-3.6,15.8c-5,10.9-16.5,19.2-30.7,22.1
		c-1.4,0.3-2.9,0.5-4.4,0.7L1772.3,586.1z"/>
	<path d="M1735.5,418.3c0-13.9-11.3-25.2-25.2-25.2c-4.9,0-9.4,1.4-13.2,3.8c-0.1,14.2-0.1,28.5,0,42.7c3.9,2.4,8.4,3.8,13.2,3.8
		C1724.2,443.5,1735.5,432.2,1735.5,418.3z"/>
	<path d="M1700.5,437.6c3.1,1.6,6.4,2.4,9.8,2.4c12,0,21.7-9.7,21.7-21.7s-9.7-21.7-21.7-21.7c-3.4,0-6.7,0.8-9.8,2.4
		C1700.4,411.8,1700.4,424.7,1700.5,437.6L1700.5,437.6z M1710.3,447c-5.3,0-10.5-1.5-15.1-4.4l-1.6-1l0-1.9
		c-0.1-14.3-0.1-28.5,0-42.8l0-1.9l1.6-1c4.6-2.9,9.8-4.4,15.1-4.4c15.8,0,28.7,12.9,28.7,28.7C1738.9,434.1,1726.1,447,1710.3,447
		L1710.3,447z"/>
	<path d="M1766.8,181c0-13.8-6.8-25.9-17.3-33.3c-13.5,1.1-26.4,5.5-34.6,12.9c-12,10.8-15.3,28.3-15.2,44.4c0,2.5,0,4.9,0,7.4
		c7.1,5.9,16.2,9.5,26.2,9.5C1748.5,221.8,1766.8,203.5,1766.8,181L1766.8,181z"/>
	<path d="M1703.2,210.6c6.5,5,14.5,7.7,22.7,7.7c20.6,0,37.4-16.8,37.4-37.4c0-11.7-5.5-22.7-14.8-29.7c-13,1.3-24.3,5.6-31.3,11.9
		c-11.8,10.6-14.1,28.6-14,41.8L1703.2,210.6z M1725.9,225.3c-10.4,0-20.5-3.7-28.4-10.3l-1.2-1l0-9c-0.2-21,5.5-37.2,16.3-47
		c8.3-7.5,21.7-12.5,36.7-13.8l1.3-0.1l1,0.7c11.7,8.3,18.7,21.8,18.7,36.2C1770.3,205.4,1750.4,225.3,1725.9,225.3L1725.9,225.3z"
		/>
</g>
</svg>
